<?xml version="1.0" standalone="no"?>
<!DOCTYPE svg PUBLIC "-//W3C//DTD SVG 20010904//EN"
 "http://www.w3.org/TR/2001/REC-SVG-20010904/DTD/svg10.dtd">
<svg version="1.0" xmlns="http://www.w3.org/2000/svg"
 width="300.000000pt" height="284.000000pt" viewBox="0 0 300.000000 284.000000"
 preserveAspectRatio="xMidYMid meet">
<metadata>
Created by potrace 1.10, written by Peter Selinger 2001-2011
</metadata>
<g transform="translate(0.000000,284.000000) scale(0.100000,-0.100000)"
fill="#000000" stroke="none">
<path d="M1354 2489 c-82 -8 -215 -32 -232 -43 -5 -3 -12 -48 -15 -101 -4 -67
-11 -105 -24 -127 -26 -44 -102 -82 -167 -82 -44 -1 -60 5 -115 42 -35 23 -67
42 -71 42 -24 0 -210 -217 -210 -245 0 -14 29 -53 77 -105 35 -37 80 -123 89
-168 12 -59 -66 -118 -226 -173 -52 -18 -97 -34 -99 -35 -2 -2 -3 -41 -2 -86
3 -111 21 -128 21 -20 l0 82 33 15 c17 8 64 26 102 41 164 63 216 133 174 237
-15 38 -89 145 -118 171 -12 11 -21 25 -21 33 0 35 157 223 186 223 7 0 19 -6
26 -14 27 -26 113 -66 145 -66 50 0 139 38 167 70 32 38 44 79 54 170 l7 75
55 18 c52 16 187 32 240 28 10 -1 21 -19 29 -48 29 -111 106 -183 195 -183 62
0 119 27 185 86 l50 45 33 -16 c101 -48 204 -118 213 -144 3 -12 -4 -39 -19
-68 -42 -83 -55 -150 -41 -211 14 -61 41 -93 100 -122 34 -16 62 -20 152 -20
l111 0 16 -47 c8 -27 20 -67 26 -91 6 -23 15 -40 20 -37 9 5 -9 91 -33 160
l-14 40 -130 0 c-127 0 -130 0 -167 29 -48 36 -80 105 -72 154 3 20 23 74 46
120 31 66 38 88 30 103 -12 21 -129 103 -216 151 l-56 30 -52 -51 c-28 -28
-55 -51 -59 -51 -4 0 -20 -9 -35 -19 -41 -29 -93 -34 -142 -15 -33 13 -51 31
-81 77 -22 33 -39 72 -39 86 0 27 -25 72 -38 70 -4 -1 -43 -5 -88 -10z"/>
<path d="M1380 2072 c-14 -1 -63 -13 -109 -24 -122 -32 -216 -100 -301 -218
-110 -153 -143 -344 -91 -517 22 -72 60 -136 61 -101 0 9 -4 20 -10 23 -15 9
-48 134 -55 211 -17 179 109 427 266 524 97 60 152 74 279 74 135 -1 218 -25
325 -94 136 -89 245 -255 264 -401 3 -29 11 -54 18 -56 37 -13 -36 234 -85
285 -7 8 -19 26 -26 40 -21 39 -117 128 -182 167 -74 45 -132 65 -236 80 -63
9 -90 11 -118 7z"/>
<path d="M2490 1569 c-13 -6 -121 -34 -240 -64 -513 -129 -727 -274 -898 -610
-47 -93 -102 -259 -108 -325 -4 -51 -30 -199 -36 -205 -3 -4 -14 -2 -25 4 -10
5 -45 19 -78 31 -126 45 -272 138 -388 249 -105 100 -168 184 -228 306 -50
102 -98 258 -87 287 6 13 26 12 180 -18 95 -18 209 -43 253 -55 160 -44 347
-159 419 -258 21 -28 42 -51 47 -51 37 0 -50 113 -138 177 -152 112 -243 145
-573 208 -102 19 -195 38 -208 41 -23 7 -23 6 -17 -42 24 -160 100 -342 196
-469 160 -210 398 -374 625 -429 166 -41 187 -41 231 -4 129 108 261 255 512
568 95 118 203 246 239 284 116 119 211 191 229 172 3 -2 -38 -53 -90 -113
-53 -59 -129 -151 -169 -204 -316 -417 -393 -502 -628 -702 l-45 -39 74 7
c147 13 326 74 475 162 88 53 270 224 325 307 37 56 92 163 122 239 48 119 61
186 66 365 3 95 2 177 -3 182 -5 4 -20 4 -34 -1z m2 -86 c12 -105 -5 -270 -39
-378 -22 -73 -100 -231 -143 -295 -123 -179 -298 -312 -530 -403 -60 -24 -165
-48 -173 -41 -2 2 53 61 122 131 70 71 155 166 191 212 36 46 92 118 126 160
33 42 87 112 121 156 33 44 99 124 145 179 101 116 116 141 102 164 -50 79
-240 -80 -504 -423 -198 -256 -479 -564 -536 -585 -24 -10 -42 -9 -108 6 -28
6 -28 7 -22 59 3 29 13 68 21 88 8 20 15 56 15 79 0 49 30 172 51 209 72 129
189 297 245 350 145 139 387 256 674 326 58 14 120 27 138 30 18 3 35 9 38 14
3 5 18 9 33 9 26 0 29 -3 33 -47z"/>
<path d="M677 982 c-22 -25 -11 -40 101 -131 53 -43 106 -88 117 -98 11 -11
54 -48 95 -83 41 -36 80 -70 85 -76 14 -17 116 -84 126 -84 22 0 4 22 -53 67
-35 27 -124 103 -198 168 -74 65 -165 141 -202 168 -74 54 -85 73 -37 63 44
-8 147 -81 301 -210 161 -135 201 -166 216 -166 26 0 -6 34 -131 137 -306 252
-376 293 -420 245z"/>
</g>
</svg>
